<?xml version="1.0" standalone="no"?>
<!DOCTYPE svg PUBLIC "-//W3C//DTD SVG 20010904//EN"
 "http://www.w3.org/TR/2001/REC-SVG-20010904/DTD/svg10.dtd">
<svg version="1.0" xmlns="http://www.w3.org/2000/svg"
 width="32.000000pt" height="32.000000pt" viewBox="0 0 32.000000 32.000000"
 preserveAspectRatio="xMidYMid meet">

<g transform="translate(0.000000,32.000000) scale(0.100000,-0.100000)"
fill="#000000" stroke="none">
<path d="M0 161 l0 -161 28 0 c15 0 33 5 40 12 7 7 12 8 12 4 0 -5 6 -3 14 3
10 9 15 8 20 -4 4 -12 25 -15 106 -15 l100 0 0 160 c0 153 -1 160 -20 160 -13
0 -22 -9 -26 -26 -5 -19 -9 -22 -15 -12 -7 10 -9 10 -9 0 0 -7 -4 -10 -10 -7
-5 3 -10 15 -10 26 0 30 -18 22 -25 -11 -4 -17 -10 -28 -15 -25 -4 3 -11 -11
-14 -30 -9 -45 -22 -37 -31 18 l-8 42 -13 -54 c-8 -29 -17 -57 -20 -62 -9 -16
-22 -10 -30 14 -7 20 -8 19 -24 -16 -13 -29 -19 -35 -24 -22 -3 9 -3 21 0 27
4 6 0 15 -7 20 -11 8 -10 9 4 4 14 -5 16 -1 11 22 -4 15 -11 28 -16 30 -4 2
-5 14 -2 27 3 12 1 26 -5 29 -8 5 -11 -41 -11 -153z m230 43 c0 -22 -2 -24
-14 -14 -8 6 -12 18 -9 26 9 23 23 16 23 -12z m-50 -44 c23 -20 29 -30 18 -30
-9 0 -19 -6 -22 -12 -3 -7 -3 -3 -1 8 4 16 -2 28 -22 43 -15 11 -23 20 -18 20
6 0 26 -13 45 -29z m16 -85 c-6 -18 -141 -14 -159 4 -8 8 -3 11 21 11 18 0 32
5 32 11 0 5 5 7 10 4 6 -4 28 -8 50 -10 32 -3 40 0 41 13 1 15 2 14 6 -1 3
-10 2 -25 -1 -32z m-108 -39 c-2 -1 -11 -7 -20 -14 -14 -11 -16 -10 -11 7 3
12 11 17 19 14 8 -3 14 -6 12 -7z m112 -6 c0 -5 -9 -10 -20 -10 -11 0 -20 5
-20 10 0 6 9 10 20 10 11 0 20 -4 20 -10z"/>
<path d="M165 310 c3 -5 8 -10 11 -10 2 0 4 5 4 10 0 6 -5 10 -11 10 -5 0 -7
-4 -4 -10z"/>
</g>
</svg>
